<mxfile host="app.diagrams.net" agent="Mozilla/5.0 (X11; Linux x86_64) AppleWebKit/537.36 (KHTML, like Gecko) Chrome/131.0.0.0 Safari/537.36" version="24.8.8">
  <diagram name="Page-1" id="WBDv5_wROoBOC59eoUjj">
    <mxGraphModel dx="600" dy="307" grid="1" gridSize="10" guides="1" tooltips="1" connect="1" arrows="1" fold="1" page="1" pageScale="1" pageWidth="827" pageHeight="1169" math="0" shadow="0">
      <root>
        <mxCell id="0" />
        <mxCell id="1" parent="0" />
        <mxCell id="_kh-6RjwllYNPOX-hxep-16" value="" style="endArrow=none;html=1;rounded=0;entryX=0.06;entryY=0.484;entryDx=0;entryDy=0;entryPerimeter=0;exitX=0.929;exitY=0.333;exitDx=0;exitDy=0;exitPerimeter=0;" edge="1" parent="1" source="_kh-6RjwllYNPOX-hxep-14" target="Nx9srBpKDY4uUFDvCekh-20">
          <mxGeometry relative="1" as="geometry">
            <mxPoint x="380" y="330" as="sourcePoint" />
            <mxPoint x="540" y="330" as="targetPoint" />
          </mxGeometry>
        </mxCell>
        <mxCell id="Nx9srBpKDY4uUFDvCekh-34" value="" style="endArrow=none;html=1;rounded=0;exitX=0.24;exitY=0.125;exitDx=0;exitDy=0;exitPerimeter=0;entryX=0.549;entryY=1.009;entryDx=0;entryDy=0;entryPerimeter=0;" parent="1" source="_kh-6RjwllYNPOX-hxep-1" edge="1" target="Nx9srBpKDY4uUFDvCekh-15">
          <mxGeometry width="50" height="50" relative="1" as="geometry">
            <mxPoint x="690" y="560" as="sourcePoint" />
            <mxPoint x="620" y="560" as="targetPoint" />
          </mxGeometry>
        </mxCell>
        <mxCell id="_kh-6RjwllYNPOX-hxep-8" value="" style="endArrow=none;html=1;rounded=0;entryX=0.549;entryY=0.98;entryDx=0;entryDy=0;entryPerimeter=0;exitX=0.38;exitY=0.034;exitDx=0;exitDy=0;exitPerimeter=0;" edge="1" parent="1" source="_kh-6RjwllYNPOX-hxep-3" target="Nx9srBpKDY4uUFDvCekh-15">
          <mxGeometry relative="1" as="geometry">
            <mxPoint x="557" y="599.33" as="sourcePoint" />
            <mxPoint x="717" y="599.33" as="targetPoint" />
          </mxGeometry>
        </mxCell>
        <mxCell id="_kh-6RjwllYNPOX-hxep-9" value="" style="endArrow=none;html=1;rounded=0;entryX=0.553;entryY=0.98;entryDx=0;entryDy=0;exitX=0.744;exitY=0.028;exitDx=0;exitDy=0;exitPerimeter=0;entryPerimeter=0;" edge="1" parent="1" source="_kh-6RjwllYNPOX-hxep-5" target="Nx9srBpKDY4uUFDvCekh-15">
          <mxGeometry relative="1" as="geometry">
            <mxPoint x="430" y="670" as="sourcePoint" />
            <mxPoint x="590" y="670" as="targetPoint" />
          </mxGeometry>
        </mxCell>
        <mxCell id="0A-Gsc1vRNAE1-bes-Se-38" value="" style="endArrow=none;html=1;rounded=0;entryX=1;entryY=0.5;entryDx=0;entryDy=0;exitX=0.944;exitY=0.689;exitDx=0;exitDy=0;exitPerimeter=0;" parent="1" source="0A-Gsc1vRNAE1-bes-Se-37" target="0A-Gsc1vRNAE1-bes-Se-30" edge="1">
          <mxGeometry width="50" height="50" relative="1" as="geometry">
            <mxPoint x="580" y="379" as="sourcePoint" />
            <mxPoint x="360" y="349" as="targetPoint" />
          </mxGeometry>
        </mxCell>
        <mxCell id="Nx9srBpKDY4uUFDvCekh-18" value="" style="endArrow=none;html=1;rounded=0;" parent="1" source="Nx9srBpKDY4uUFDvCekh-16" target="0A-Gsc1vRNAE1-bes-Se-31" edge="1">
          <mxGeometry width="50" height="50" relative="1" as="geometry">
            <mxPoint x="580" y="389" as="sourcePoint" />
            <mxPoint x="630" y="339" as="targetPoint" />
          </mxGeometry>
        </mxCell>
        <mxCell id="0A-Gsc1vRNAE1-bes-Se-39" value="" style="endArrow=none;html=1;rounded=0;exitX=0.483;exitY=0.04;exitDx=0;exitDy=0;exitPerimeter=0;entryX=1;entryY=0.5;entryDx=0;entryDy=0;" parent="1" source="0A-Gsc1vRNAE1-bes-Se-34" target="0A-Gsc1vRNAE1-bes-Se-30" edge="1">
          <mxGeometry width="50" height="50" relative="1" as="geometry">
            <mxPoint x="590" y="389" as="sourcePoint" />
            <mxPoint x="600" y="349" as="targetPoint" />
          </mxGeometry>
        </mxCell>
        <mxCell id="Nx9srBpKDY4uUFDvCekh-7" value="" style="endArrow=none;html=1;rounded=0;entryX=0;entryY=0.5;entryDx=0;entryDy=0;" parent="1" target="0A-Gsc1vRNAE1-bes-Se-30" edge="1">
          <mxGeometry width="50" height="50" relative="1" as="geometry">
            <mxPoint x="460" y="319" as="sourcePoint" />
            <mxPoint x="550" y="319.71" as="targetPoint" />
          </mxGeometry>
        </mxCell>
        <mxCell id="0A-Gsc1vRNAE1-bes-Se-27" value="" style="endArrow=none;html=1;rounded=0;entryX=0.5;entryY=1;entryDx=0;entryDy=0;" parent="1" source="0A-Gsc1vRNAE1-bes-Se-7" target="0A-Gsc1vRNAE1-bes-Se-1" edge="1">
          <mxGeometry width="50" height="50" relative="1" as="geometry">
            <mxPoint x="3.759999999999991" y="381.6" as="sourcePoint" />
            <mxPoint x="220" y="340" as="targetPoint" />
          </mxGeometry>
        </mxCell>
        <mxCell id="0A-Gsc1vRNAE1-bes-Se-25" value="" style="endArrow=none;html=1;rounded=0;exitX=0.549;exitY=0.013;exitDx=0;exitDy=0;exitPerimeter=0;" parent="1" source="0A-Gsc1vRNAE1-bes-Se-9" target="0A-Gsc1vRNAE1-bes-Se-1" edge="1">
          <mxGeometry width="50" height="50" relative="1" as="geometry">
            <mxPoint x="170" y="380" as="sourcePoint" />
            <mxPoint x="220" y="340" as="targetPoint" />
          </mxGeometry>
        </mxCell>
        <mxCell id="0A-Gsc1vRNAE1-bes-Se-26" value="" style="endArrow=none;html=1;rounded=0;exitX=1;exitY=0.5;exitDx=0;exitDy=0;" parent="1" source="0A-Gsc1vRNAE1-bes-Se-10" edge="1">
          <mxGeometry width="50" height="50" relative="1" as="geometry">
            <mxPoint x="80" y="340" as="sourcePoint" />
            <mxPoint x="170" y="340" as="targetPoint" />
          </mxGeometry>
        </mxCell>
        <mxCell id="0A-Gsc1vRNAE1-bes-Se-28" value="" style="endArrow=none;html=1;rounded=0;entryX=0.425;entryY=1.133;entryDx=0;entryDy=0;entryPerimeter=0;exitX=0.972;exitY=0.69;exitDx=0;exitDy=0;exitPerimeter=0;" parent="1" source="0A-Gsc1vRNAE1-bes-Se-12" target="0A-Gsc1vRNAE1-bes-Se-2" edge="1">
          <mxGeometry width="50" height="50" relative="1" as="geometry">
            <mxPoint x="30" y="390" as="sourcePoint" />
            <mxPoint x="144" y="342" as="targetPoint" />
          </mxGeometry>
        </mxCell>
        <mxCell id="0A-Gsc1vRNAE1-bes-Se-16" value="" style="group;labelBackgroundColor=default;" parent="1" vertex="1" connectable="0">
          <mxGeometry x="125" y="369" width="70" height="30" as="geometry" />
        </mxCell>
        <mxCell id="0A-Gsc1vRNAE1-bes-Se-6" value="" style="ellipse;whiteSpace=wrap;html=1;" parent="0A-Gsc1vRNAE1-bes-Se-16" vertex="1">
          <mxGeometry width="70" height="30" as="geometry" />
        </mxCell>
        <mxCell id="0A-Gsc1vRNAE1-bes-Se-9" value="Nombre" style="text;html=1;align=center;verticalAlign=middle;resizable=0;points=[];autosize=1;strokeColor=none;fillColor=none;" parent="0A-Gsc1vRNAE1-bes-Se-16" vertex="1">
          <mxGeometry width="70" height="30" as="geometry" />
        </mxCell>
        <mxCell id="0A-Gsc1vRNAE1-bes-Se-19" value="" style="group;labelBackgroundColor=default;" parent="1" vertex="1" connectable="0">
          <mxGeometry x="20" y="393" width="60" height="30" as="geometry" />
        </mxCell>
        <mxCell id="0A-Gsc1vRNAE1-bes-Se-10" value="" style="ellipse;whiteSpace=wrap;html=1;" parent="0A-Gsc1vRNAE1-bes-Se-19" vertex="1">
          <mxGeometry width="60" height="30" as="geometry" />
        </mxCell>
        <mxCell id="0A-Gsc1vRNAE1-bes-Se-8" value="Ciudad" style="text;html=1;align=center;verticalAlign=middle;resizable=0;points=[];autosize=1;strokeColor=none;fillColor=none;" parent="0A-Gsc1vRNAE1-bes-Se-19" vertex="1">
          <mxGeometry width="60" height="30" as="geometry" />
        </mxCell>
        <mxCell id="0A-Gsc1vRNAE1-bes-Se-21" value="" style="group;labelBackgroundColor=default;" parent="1" vertex="1" connectable="0">
          <mxGeometry x="200" y="393" width="120" height="40" as="geometry" />
        </mxCell>
        <mxCell id="0A-Gsc1vRNAE1-bes-Se-11" value="" style="ellipse;whiteSpace=wrap;html=1;" parent="0A-Gsc1vRNAE1-bes-Se-21" vertex="1">
          <mxGeometry width="120" height="40" as="geometry" />
        </mxCell>
        <mxCell id="0A-Gsc1vRNAE1-bes-Se-7" value="Provincia" style="text;html=1;align=center;verticalAlign=middle;resizable=0;points=[];autosize=1;strokeColor=none;fillColor=none;" parent="0A-Gsc1vRNAE1-bes-Se-21" vertex="1">
          <mxGeometry x="25" y="5" width="70" height="30" as="geometry" />
        </mxCell>
        <mxCell id="0A-Gsc1vRNAE1-bes-Se-22" value="" style="group;labelBackgroundColor=default;" parent="1" vertex="1" connectable="0">
          <mxGeometry x="20" y="140" width="205" height="40" as="geometry" />
        </mxCell>
        <mxCell id="0A-Gsc1vRNAE1-bes-Se-12" value="" style="ellipse;whiteSpace=wrap;html=1;" parent="0A-Gsc1vRNAE1-bes-Se-22" vertex="1">
          <mxGeometry width="145" height="40" as="geometry" />
        </mxCell>
        <mxCell id="0A-Gsc1vRNAE1-bes-Se-15" value="&lt;span style=&quot;color: rgb(55, 58, 60); font-family: -apple-system, BlinkMacSystemFont, &amp;quot;Segoe UI&amp;quot;, Roboto, &amp;quot;Helvetica Neue&amp;quot;, Arial, &amp;quot;Noto Sans&amp;quot;, &amp;quot;Liberation Sans&amp;quot;, sans-serif, &amp;quot;Apple Color Emoji&amp;quot;, &amp;quot;Segoe UI Emoji&amp;quot;, &amp;quot;Segoe UI Symbol&amp;quot;, &amp;quot;Noto Color Emoji&amp;quot;; font-size: 15px; text-align: left; text-wrap-mode: wrap; background-color: rgb(255, 255, 255);&quot;&gt;DirecciÃ³n&lt;/span&gt;" style="text;html=1;align=center;verticalAlign=middle;resizable=0;points=[];autosize=1;strokeColor=none;fillColor=none;" parent="0A-Gsc1vRNAE1-bes-Se-22" vertex="1">
          <mxGeometry x="27.5" y="5" width="90" height="30" as="geometry" />
        </mxCell>
        <mxCell id="0A-Gsc1vRNAE1-bes-Se-23" value="" style="group" parent="1" vertex="1" connectable="0">
          <mxGeometry x="120" y="299" width="120" height="40" as="geometry" />
        </mxCell>
        <object label="" id="0A-Gsc1vRNAE1-bes-Se-1">
          <mxCell style="rounded=0;whiteSpace=wrap;html=1;labelBackgroundColor=default;" parent="0A-Gsc1vRNAE1-bes-Se-23" vertex="1">
            <mxGeometry width="120" height="40" as="geometry" />
          </mxCell>
        </object>
        <mxCell id="0A-Gsc1vRNAE1-bes-Se-2" value="&lt;div style=&quot;text-align: left;&quot;&gt;&lt;font face=&quot;-apple-system, BlinkMacSystemFont, Segoe UI, Roboto, Helvetica Neue, Arial, Noto Sans, Liberation Sans, sans-serif, Apple Color Emoji, Segoe UI Emoji, Segoe UI Symbol, Noto Color Emoji&quot; color=&quot;#373a3c&quot;&gt;&lt;span style=&quot;font-size: 15px; text-wrap-mode: wrap; background-color: rgb(255, 255, 255);&quot;&gt;Empresa&lt;/span&gt;&lt;/font&gt;&lt;/div&gt;" style="text;html=1;align=center;verticalAlign=middle;resizable=0;points=[];autosize=1;strokeColor=none;fillColor=none;" parent="0A-Gsc1vRNAE1-bes-Se-23" vertex="1">
          <mxGeometry x="20" y="5" width="80" height="30" as="geometry" />
        </mxCell>
        <mxCell id="0A-Gsc1vRNAE1-bes-Se-29" value="" style="group;labelBackgroundColor=default;" parent="1" vertex="1" connectable="0">
          <mxGeometry x="560" y="299" width="120" height="45" as="geometry" />
        </mxCell>
        <object label="" id="0A-Gsc1vRNAE1-bes-Se-30">
          <mxCell style="rounded=0;whiteSpace=wrap;html=1;" parent="0A-Gsc1vRNAE1-bes-Se-29" vertex="1">
            <mxGeometry width="120" height="40" as="geometry" />
          </mxCell>
        </object>
        <mxCell id="0A-Gsc1vRNAE1-bes-Se-31" value="&lt;span style=&quot;color: rgb(55, 58, 60); font-family: -apple-system, BlinkMacSystemFont, &amp;quot;Segoe UI&amp;quot;, Roboto, &amp;quot;Helvetica Neue&amp;quot;, Arial, &amp;quot;Noto Sans&amp;quot;, &amp;quot;Liberation Sans&amp;quot;, sans-serif, &amp;quot;Apple Color Emoji&amp;quot;, &amp;quot;Segoe UI Emoji&amp;quot;, &amp;quot;Segoe UI Symbol&amp;quot;, &amp;quot;Noto Color Emoji&amp;quot;; font-size: 15px; text-align: left; text-wrap-mode: wrap; background-color: rgb(255, 255, 255);&quot;&gt;Productos&lt;/span&gt;" style="text;html=1;align=center;verticalAlign=middle;resizable=0;points=[];autosize=1;strokeColor=none;fillColor=none;" parent="0A-Gsc1vRNAE1-bes-Se-29" vertex="1">
          <mxGeometry x="15" y="5" width="90" height="30" as="geometry" />
        </mxCell>
        <mxCell id="0A-Gsc1vRNAE1-bes-Se-32" value="" style="group;labelBackgroundColor=default;" parent="1" vertex="1" connectable="0">
          <mxGeometry x="735" y="250" width="70" height="30" as="geometry" />
        </mxCell>
        <mxCell id="0A-Gsc1vRNAE1-bes-Se-33" value="" style="ellipse;whiteSpace=wrap;html=1;" parent="0A-Gsc1vRNAE1-bes-Se-32" vertex="1">
          <mxGeometry width="70" height="30" as="geometry" />
        </mxCell>
        <mxCell id="0A-Gsc1vRNAE1-bes-Se-34" value="Nombre" style="text;html=1;align=center;verticalAlign=middle;resizable=0;points=[];autosize=1;strokeColor=none;fillColor=none;" parent="0A-Gsc1vRNAE1-bes-Se-32" vertex="1">
          <mxGeometry width="70" height="30" as="geometry" />
        </mxCell>
        <mxCell id="0A-Gsc1vRNAE1-bes-Se-35" value="" style="group;labelBackgroundColor=default;" parent="1" vertex="1" connectable="0">
          <mxGeometry x="740" y="360" width="70" height="30" as="geometry" />
        </mxCell>
        <mxCell id="0A-Gsc1vRNAE1-bes-Se-36" value="" style="ellipse;whiteSpace=wrap;html=1;" parent="0A-Gsc1vRNAE1-bes-Se-35" vertex="1">
          <mxGeometry width="70" height="30" as="geometry" />
        </mxCell>
        <mxCell id="0A-Gsc1vRNAE1-bes-Se-37" value="&lt;u&gt;CÃ³digo&lt;/u&gt;" style="text;html=1;align=center;verticalAlign=middle;resizable=0;points=[];autosize=1;strokeColor=none;fillColor=none;" parent="0A-Gsc1vRNAE1-bes-Se-35" vertex="1">
          <mxGeometry x="5" width="60" height="30" as="geometry" />
        </mxCell>
        <mxCell id="Nx9srBpKDY4uUFDvCekh-2" value="" style="group;labelBackgroundColor=default;" parent="1" vertex="1" connectable="0">
          <mxGeometry x="320" y="297" width="170" height="50" as="geometry" />
        </mxCell>
        <mxCell id="0A-Gsc1vRNAE1-bes-Se-40" value="" style="rhombus;whiteSpace=wrap;html=1;" parent="Nx9srBpKDY4uUFDvCekh-2" vertex="1">
          <mxGeometry x="10" y="-6" width="140" height="56" as="geometry" />
        </mxCell>
        <mxCell id="Nx9srBpKDY4uUFDvCekh-1" value="&lt;span style=&quot;color: rgb(55, 58, 60); font-family: -apple-system, BlinkMacSystemFont, &amp;quot;Segoe UI&amp;quot;, Roboto, &amp;quot;Helvetica Neue&amp;quot;, Arial, &amp;quot;Noto Sans&amp;quot;, &amp;quot;Liberation Sans&amp;quot;, sans-serif, &amp;quot;Apple Color Emoji&amp;quot;, &amp;quot;Segoe UI Emoji&amp;quot;, &amp;quot;Segoe UI Symbol&amp;quot;, &amp;quot;Noto Color Emoji&amp;quot;; font-size: 15px; text-align: left; text-wrap-mode: wrap; background-color: rgb(255, 255, 255);&quot;&gt;vende&lt;/span&gt;" style="text;html=1;align=center;verticalAlign=middle;resizable=0;points=[];autosize=1;strokeColor=none;fillColor=none;" parent="Nx9srBpKDY4uUFDvCekh-2" vertex="1">
          <mxGeometry x="50" y="3.005000000000001" width="60" height="30" as="geometry" />
        </mxCell>
        <mxCell id="Nx9srBpKDY4uUFDvCekh-5" value="" style="endArrow=none;html=1;rounded=0;exitX=1;exitY=0.5;exitDx=0;exitDy=0;" parent="1" source="0A-Gsc1vRNAE1-bes-Se-1" edge="1">
          <mxGeometry width="50" height="50" relative="1" as="geometry">
            <mxPoint x="270" y="460" as="sourcePoint" />
            <mxPoint x="330" y="319" as="targetPoint" />
          </mxGeometry>
        </mxCell>
        <mxCell id="Nx9srBpKDY4uUFDvCekh-12" value="(1:M)" style="text;html=1;align=center;verticalAlign=middle;whiteSpace=wrap;rounded=0;" parent="1" vertex="1">
          <mxGeometry x="500" y="290" width="60" height="30" as="geometry" />
        </mxCell>
        <mxCell id="Nx9srBpKDY4uUFDvCekh-13" value="(1:N)" style="text;html=1;align=center;verticalAlign=middle;whiteSpace=wrap;rounded=0;" parent="1" vertex="1">
          <mxGeometry x="240" y="290" width="60" height="30" as="geometry" />
        </mxCell>
        <mxCell id="Nx9srBpKDY4uUFDvCekh-14" value="" style="group" parent="1" vertex="1" connectable="0">
          <mxGeometry x="560" y="525" width="120" height="40" as="geometry" />
        </mxCell>
        <object label="" id="Nx9srBpKDY4uUFDvCekh-15">
          <mxCell style="rounded=0;whiteSpace=wrap;html=1;labelBackgroundColor=default;" parent="Nx9srBpKDY4uUFDvCekh-14" vertex="1">
            <mxGeometry width="120" height="40" as="geometry" />
          </mxCell>
        </object>
        <mxCell id="Nx9srBpKDY4uUFDvCekh-16" value="&lt;div style=&quot;text-align: left;&quot;&gt;&lt;font face=&quot;-apple-system, BlinkMacSystemFont, Segoe UI, Roboto, Helvetica Neue, Arial, Noto Sans, Liberation Sans, sans-serif, Apple Color Emoji, Segoe UI Emoji, Segoe UI Symbol, Noto Color Emoji&quot; color=&quot;#373a3c&quot;&gt;&lt;span style=&quot;font-size: 15px; text-wrap-mode: wrap; background-color: rgb(255, 255, 255);&quot;&gt;Clientes&lt;/span&gt;&lt;/font&gt;&lt;/div&gt;" style="text;html=1;align=center;verticalAlign=middle;resizable=0;points=[];autosize=1;strokeColor=none;fillColor=none;" parent="Nx9srBpKDY4uUFDvCekh-14" vertex="1">
          <mxGeometry x="20" y="5" width="80" height="30" as="geometry" />
        </mxCell>
        <mxCell id="Nx9srBpKDY4uUFDvCekh-19" value="" style="group;labelBackgroundColor=default;" parent="1" vertex="1" connectable="0">
          <mxGeometry x="540" y="395" width="195" height="60" as="geometry" />
        </mxCell>
        <mxCell id="Nx9srBpKDY4uUFDvCekh-20" value="" style="rhombus;whiteSpace=wrap;html=1;" parent="Nx9srBpKDY4uUFDvCekh-19" vertex="1">
          <mxGeometry x="9.999999999999996" y="-7.200000000000001" width="139.99999999999997" height="67.2" as="geometry" />
        </mxCell>
        <mxCell id="Nx9srBpKDY4uUFDvCekh-21" value="&lt;span style=&quot;color: rgb(55, 58, 60); font-family: -apple-system, BlinkMacSystemFont, &amp;quot;Segoe UI&amp;quot;, Roboto, &amp;quot;Helvetica Neue&amp;quot;, Arial, &amp;quot;Noto Sans&amp;quot;, &amp;quot;Liberation Sans&amp;quot;, sans-serif, &amp;quot;Apple Color Emoji&amp;quot;, &amp;quot;Segoe UI Emoji&amp;quot;, &amp;quot;Segoe UI Symbol&amp;quot;, &amp;quot;Noto Color Emoji&amp;quot;; font-size: 15px; text-align: left; text-wrap-mode: wrap; background-color: rgb(255, 255, 255);&quot;&gt;son comprados&lt;/span&gt;" style="text;html=1;align=center;verticalAlign=middle;resizable=0;points=[];autosize=1;strokeColor=none;fillColor=none;imageWidth=28;" parent="Nx9srBpKDY4uUFDvCekh-19" vertex="1">
          <mxGeometry x="15.004999999999995" y="11.403999999999996" width="130" height="30" as="geometry" />
        </mxCell>
        <mxCell id="Nx9srBpKDY4uUFDvCekh-78" value="N:M" style="text;html=1;align=center;verticalAlign=middle;whiteSpace=wrap;rounded=0;" parent="Nx9srBpKDY4uUFDvCekh-19" vertex="1">
          <mxGeometry x="135" y="-0.6000000000000227" width="60" height="54" as="geometry" />
        </mxCell>
        <mxCell id="Nx9srBpKDY4uUFDvCekh-80" style="edgeStyle=orthogonalEdgeStyle;rounded=0;orthogonalLoop=1;jettySize=auto;html=1;exitX=0.5;exitY=1;exitDx=0;exitDy=0;" parent="Nx9srBpKDY4uUFDvCekh-19" source="Nx9srBpKDY4uUFDvCekh-78" target="Nx9srBpKDY4uUFDvCekh-78" edge="1">
          <mxGeometry relative="1" as="geometry" />
        </mxCell>
        <mxCell id="Nx9srBpKDY4uUFDvCekh-25" value="(0:M)" style="text;html=1;align=center;verticalAlign=middle;whiteSpace=wrap;rounded=0;" parent="1" vertex="1">
          <mxGeometry x="607.5" y="495" width="60" height="30" as="geometry" />
        </mxCell>
        <mxCell id="Nx9srBpKDY4uUFDvCekh-77" value="(1:N)" style="text;html=1;align=center;verticalAlign=middle;whiteSpace=wrap;rounded=0;" parent="1" vertex="1">
          <mxGeometry x="607" y="339" width="60" height="30" as="geometry" />
        </mxCell>
        <mxCell id="Nx9srBpKDY4uUFDvCekh-81" value="N:M" style="text;html=1;align=center;verticalAlign=middle;whiteSpace=wrap;rounded=0;" parent="1" vertex="1">
          <mxGeometry x="370" y="256" width="60" height="54" as="geometry" />
        </mxCell>
        <mxCell id="WigmYA1BDDT_uc1wTE7y-1" value="" style="group;labelBackgroundColor=default;" parent="1" vertex="1" connectable="0">
          <mxGeometry x="740" y="304" width="70" height="30" as="geometry" />
        </mxCell>
        <mxCell id="WigmYA1BDDT_uc1wTE7y-2" value="" style="ellipse;whiteSpace=wrap;html=1;" parent="WigmYA1BDDT_uc1wTE7y-1" vertex="1">
          <mxGeometry width="70" height="30" as="geometry" />
        </mxCell>
        <mxCell id="WigmYA1BDDT_uc1wTE7y-3" value="Precio" style="text;html=1;align=center;verticalAlign=middle;resizable=0;points=[];autosize=1;strokeColor=none;fillColor=none;" parent="WigmYA1BDDT_uc1wTE7y-1" vertex="1">
          <mxGeometry x="5" width="60" height="30" as="geometry" />
        </mxCell>
        <mxCell id="WigmYA1BDDT_uc1wTE7y-4" value="" style="endArrow=none;html=1;rounded=0;entryX=1;entryY=0.5;entryDx=0;entryDy=0;exitX=0;exitY=1;exitDx=0;exitDy=0;" parent="1" source="WigmYA1BDDT_uc1wTE7y-2" target="0A-Gsc1vRNAE1-bes-Se-30" edge="1">
          <mxGeometry width="50" height="50" relative="1" as="geometry">
            <mxPoint x="690" y="320" as="sourcePoint" />
            <mxPoint x="654" y="344" as="targetPoint" />
          </mxGeometry>
        </mxCell>
        <mxCell id="WigmYA1BDDT_uc1wTE7y-23" value="" style="group;labelBackgroundColor=default;" parent="1" vertex="1" connectable="0">
          <mxGeometry x="360" y="380" width="80" height="30" as="geometry" />
        </mxCell>
        <mxCell id="WigmYA1BDDT_uc1wTE7y-24" value="" style="ellipse;whiteSpace=wrap;html=1;" parent="WigmYA1BDDT_uc1wTE7y-23" vertex="1">
          <mxGeometry width="80" height="30" as="geometry" />
        </mxCell>
        <mxCell id="WigmYA1BDDT_uc1wTE7y-25" value="Cantidad" style="text;html=1;align=center;verticalAlign=middle;resizable=0;points=[];autosize=1;strokeColor=none;fillColor=none;" parent="WigmYA1BDDT_uc1wTE7y-23" vertex="1">
          <mxGeometry x="4.996666666666664" width="70" height="30" as="geometry" />
        </mxCell>
        <mxCell id="WigmYA1BDDT_uc1wTE7y-26" value="" style="endArrow=none;html=1;rounded=0;entryX=0.5;entryY=1;entryDx=0;entryDy=0;" parent="1" target="0A-Gsc1vRNAE1-bes-Se-40" edge="1">
          <mxGeometry width="50" height="50" relative="1" as="geometry">
            <mxPoint x="400" y="380" as="sourcePoint" />
            <mxPoint x="470" y="380" as="targetPoint" />
          </mxGeometry>
        </mxCell>
        <mxCell id="WigmYA1BDDT_uc1wTE7y-27" value="" style="group;labelBackgroundColor=default;" parent="1" vertex="1" connectable="0">
          <mxGeometry x="110" y="250" width="70" height="30" as="geometry" />
        </mxCell>
        <mxCell id="WigmYA1BDDT_uc1wTE7y-28" value="" style="ellipse;whiteSpace=wrap;html=1;" parent="WigmYA1BDDT_uc1wTE7y-27" vertex="1">
          <mxGeometry width="70" height="30" as="geometry" />
        </mxCell>
        <mxCell id="WigmYA1BDDT_uc1wTE7y-29" value="&lt;u&gt;CÃ³digo&lt;/u&gt;" style="text;html=1;align=center;verticalAlign=middle;resizable=0;points=[];autosize=1;strokeColor=none;fillColor=none;" parent="WigmYA1BDDT_uc1wTE7y-27" vertex="1">
          <mxGeometry x="5" width="60" height="30" as="geometry" />
        </mxCell>
        <mxCell id="WigmYA1BDDT_uc1wTE7y-30" value="" style="endArrow=none;html=1;rounded=0;entryX=0.25;entryY=0;entryDx=0;entryDy=0;exitX=0.494;exitY=1.033;exitDx=0;exitDy=0;exitPerimeter=0;" parent="1" source="WigmYA1BDDT_uc1wTE7y-29" target="0A-Gsc1vRNAE1-bes-Se-1" edge="1">
          <mxGeometry width="50" height="50" relative="1" as="geometry">
            <mxPoint x="598" y="280" as="sourcePoint" />
            <mxPoint x="604" y="312" as="targetPoint" />
          </mxGeometry>
        </mxCell>
        <mxCell id="_kh-6RjwllYNPOX-hxep-1" value="DNI" style="ellipse;whiteSpace=wrap;html=1;align=center;fontStyle=4;" vertex="1" parent="1">
          <mxGeometry x="700" y="580" width="100" height="40" as="geometry" />
        </mxCell>
        <mxCell id="_kh-6RjwllYNPOX-hxep-3" value="Nombre" style="ellipse;whiteSpace=wrap;html=1;align=center;" vertex="1" parent="1">
          <mxGeometry x="600" y="620" width="100" height="40" as="geometry" />
        </mxCell>
        <mxCell id="_kh-6RjwllYNPOX-hxep-4" value="DirecciÃ³n" style="ellipse;whiteSpace=wrap;html=1;align=center;" vertex="1" parent="1">
          <mxGeometry x="414" y="560" width="100" height="40" as="geometry" />
        </mxCell>
        <mxCell id="_kh-6RjwllYNPOX-hxep-5" value="Apellidos" style="ellipse;whiteSpace=wrap;html=1;align=center;" vertex="1" parent="1">
          <mxGeometry x="480" y="610" width="100" height="40" as="geometry" />
        </mxCell>
        <mxCell id="_kh-6RjwllYNPOX-hxep-6" value="Fecha de nacimiento" style="ellipse;whiteSpace=wrap;html=1;align=center;" vertex="1" parent="1">
          <mxGeometry x="414" y="504" width="100" height="40" as="geometry" />
        </mxCell>
        <mxCell id="_kh-6RjwllYNPOX-hxep-7" value="" style="endArrow=none;html=1;rounded=0;entryX=0;entryY=0.5;entryDx=0;entryDy=0;" edge="1" parent="1" source="_kh-6RjwllYNPOX-hxep-6" target="Nx9srBpKDY4uUFDvCekh-15">
          <mxGeometry relative="1" as="geometry">
            <mxPoint x="370" y="560" as="sourcePoint" />
            <mxPoint x="530" y="560" as="targetPoint" />
          </mxGeometry>
        </mxCell>
        <mxCell id="_kh-6RjwllYNPOX-hxep-10" value="" style="endArrow=none;html=1;rounded=0;exitX=0.906;exitY=0.185;exitDx=0;exitDy=0;exitPerimeter=0;entryX=0;entryY=0.5;entryDx=0;entryDy=0;" edge="1" parent="1" source="_kh-6RjwllYNPOX-hxep-4" target="Nx9srBpKDY4uUFDvCekh-15">
          <mxGeometry relative="1" as="geometry">
            <mxPoint x="370" y="560" as="sourcePoint" />
            <mxPoint x="530" y="560" as="targetPoint" />
          </mxGeometry>
        </mxCell>
        <mxCell id="_kh-6RjwllYNPOX-hxep-13" value="" style="group;labelBackgroundColor=default;" vertex="1" connectable="0" parent="1">
          <mxGeometry x="440" y="420" width="80" height="30" as="geometry" />
        </mxCell>
        <mxCell id="_kh-6RjwllYNPOX-hxep-14" value="" style="ellipse;whiteSpace=wrap;html=1;" vertex="1" parent="_kh-6RjwllYNPOX-hxep-13">
          <mxGeometry width="80" height="30" as="geometry" />
        </mxCell>
        <mxCell id="_kh-6RjwllYNPOX-hxep-15" value="Cantidad" style="text;html=1;align=center;verticalAlign=middle;resizable=0;points=[];autosize=1;strokeColor=none;fillColor=none;" vertex="1" parent="_kh-6RjwllYNPOX-hxep-13">
          <mxGeometry x="4.996666666666664" width="70" height="30" as="geometry" />
        </mxCell>
        <mxCell id="_kh-6RjwllYNPOX-hxep-17" value="Proveedor" style="whiteSpace=wrap;html=1;align=center;" vertex="1" parent="1">
          <mxGeometry x="575" y="120" width="100" height="40" as="geometry" />
        </mxCell>
        <mxCell id="_kh-6RjwllYNPOX-hxep-22" value="provee" style="shape=rhombus;perimeter=rhombusPerimeter;whiteSpace=wrap;html=1;align=center;" vertex="1" parent="1">
          <mxGeometry x="571.25" y="206" width="97.5" height="50" as="geometry" />
        </mxCell>
        <mxCell id="_kh-6RjwllYNPOX-hxep-26" value="" style="endArrow=none;html=1;rounded=0;exitX=0.466;exitY=1.041;exitDx=0;exitDy=0;exitPerimeter=0;" edge="1" parent="1" source="_kh-6RjwllYNPOX-hxep-17" target="_kh-6RjwllYNPOX-hxep-22">
          <mxGeometry relative="1" as="geometry">
            <mxPoint x="380" y="330" as="sourcePoint" />
            <mxPoint x="540" y="330" as="targetPoint" />
          </mxGeometry>
        </mxCell>
        <mxCell id="_kh-6RjwllYNPOX-hxep-27" value="" style="endArrow=none;html=1;rounded=0;entryX=0.5;entryY=0;entryDx=0;entryDy=0;exitX=0.5;exitY=1;exitDx=0;exitDy=0;" edge="1" parent="1" source="_kh-6RjwllYNPOX-hxep-22" target="0A-Gsc1vRNAE1-bes-Se-30">
          <mxGeometry relative="1" as="geometry">
            <mxPoint x="380" y="330" as="sourcePoint" />
            <mxPoint x="540" y="330" as="targetPoint" />
          </mxGeometry>
        </mxCell>
        <mxCell id="_kh-6RjwllYNPOX-hxep-28" value="(1:N)" style="text;html=1;align=center;verticalAlign=middle;whiteSpace=wrap;rounded=0;" vertex="1" parent="1">
          <mxGeometry x="607.5" y="274" width="60" height="30" as="geometry" />
        </mxCell>
        <mxCell id="_kh-6RjwllYNPOX-hxep-29" value="(1:1)" style="text;html=1;align=center;verticalAlign=middle;whiteSpace=wrap;rounded=0;" vertex="1" parent="1">
          <mxGeometry x="608.5" y="155" width="60" height="30" as="geometry" />
        </mxCell>
        <mxCell id="_kh-6RjwllYNPOX-hxep-30" value="1:N" style="text;html=1;align=center;verticalAlign=middle;whiteSpace=wrap;rounded=0;" vertex="1" parent="1">
          <mxGeometry x="660" y="204" width="60" height="54" as="geometry" />
        </mxCell>
        <mxCell id="_kh-6RjwllYNPOX-hxep-31" value="Nombre" style="ellipse;whiteSpace=wrap;html=1;align=center;" vertex="1" parent="1">
          <mxGeometry x="555" y="50" width="100" height="40" as="geometry" />
        </mxCell>
        <mxCell id="_kh-6RjwllYNPOX-hxep-32" value="CIF" style="ellipse;whiteSpace=wrap;html=1;align=center;fontStyle=4;" vertex="1" parent="1">
          <mxGeometry x="450" y="50" width="100" height="40" as="geometry" />
        </mxCell>
        <mxCell id="_kh-6RjwllYNPOX-hxep-34" value="DirecciÃ³n" style="ellipse;whiteSpace=wrap;html=1;align=center;" vertex="1" parent="1">
          <mxGeometry x="660" y="50" width="100" height="40" as="geometry" />
        </mxCell>
        <mxCell id="_kh-6RjwllYNPOX-hxep-35" value="" style="endArrow=none;html=1;rounded=0;exitX=0.5;exitY=1;exitDx=0;exitDy=0;entryX=0.401;entryY=-0.012;entryDx=0;entryDy=0;entryPerimeter=0;" edge="1" parent="1" source="_kh-6RjwllYNPOX-hxep-32" target="_kh-6RjwllYNPOX-hxep-17">
          <mxGeometry relative="1" as="geometry">
            <mxPoint x="440" y="100" as="sourcePoint" />
            <mxPoint x="600" y="100" as="targetPoint" />
          </mxGeometry>
        </mxCell>
        <mxCell id="_kh-6RjwllYNPOX-hxep-36" value="" style="endArrow=none;html=1;rounded=0;exitX=0.56;exitY=1.018;exitDx=0;exitDy=0;exitPerimeter=0;entryX=0.378;entryY=-0.001;entryDx=0;entryDy=0;entryPerimeter=0;" edge="1" parent="1" source="_kh-6RjwllYNPOX-hxep-31" target="_kh-6RjwllYNPOX-hxep-17">
          <mxGeometry relative="1" as="geometry">
            <mxPoint x="440" y="100" as="sourcePoint" />
            <mxPoint x="600" y="100" as="targetPoint" />
          </mxGeometry>
        </mxCell>
        <mxCell id="_kh-6RjwllYNPOX-hxep-37" value="" style="endArrow=none;html=1;rounded=0;exitX=0.447;exitY=0.961;exitDx=0;exitDy=0;exitPerimeter=0;entryX=0.392;entryY=0.022;entryDx=0;entryDy=0;entryPerimeter=0;" edge="1" parent="1" source="_kh-6RjwllYNPOX-hxep-34" target="_kh-6RjwllYNPOX-hxep-17">
          <mxGeometry relative="1" as="geometry">
            <mxPoint x="440" y="100" as="sourcePoint" />
            <mxPoint x="600" y="100" as="targetPoint" />
          </mxGeometry>
        </mxCell>
      </root>
    </mxGraphModel>
  </diagram>
</mxfile>
